<?xml version="1.0" standalone="no"?><svg version="1.1" xmlns="http://www.w3.org/2000/svg" width="859.4306640625" height="468"><svg x="273.94287109375" y="27.5" width="314.48779296875" height="48"><path d="M4,22L152.743896484375,22Q152.743896484375,22,152.743896484375,22L152.743896484375,22Q152.743896484375,22,152.743896484375,22L301.48779296875,22L152.743896484375,22Q152.743896484375,22,152.743896484375,22L152.743896484375,22Q152.743896484375,22,152.743896484375,22L4,22L4,22M14,18L14,26M301.48779296875,18L291.48779296875,22L301.48779296875,26" fill="none" stroke="#D3D3D3" stroke-width="1"></path><text x="7" y="19" style="font-family: &quot;Open Sans&quot;, sans-serif; font-size: 14px; font-weight: normal; fill: transparent;">1</text><text x="290.77685546875" y="19" style="font-family: &quot;Open Sans&quot;, sans-serif; font-size: 14px; font-weight: normal; fill: transparent;">*</text></svg><svg x="830.0322265625" y="60.5" width="29.3984375" height="161"><path d="M6.3984375,135L16.3984375,135Q26.3984375,135,26.3984375,125L26.3984375,32Q26.3984375,22,16.3984375,22L4,22L16.3984375,22Q26.3984375,22,26.3984375,32L26.3984375,125Q26.3984375,135,16.3984375,135L6.3984375,135L6.3984375,135ZM16.3984375,131L16.3984375,139M4,18L14,22L4,26" fill="none" stroke="#D3D3D3" stroke-width="1"></path><text x="9.3984375" y="132" style="font-family: &quot;Open Sans&quot;, sans-serif; font-size: 14px; font-weight: normal; fill: transparent;">1</text><text x="7" y="19" style="font-family: &quot;Open Sans&quot;, sans-serif; font-size: 14px; font-weight: normal; fill: transparent;">*</text></svg><svg x="217.640625" y="27.5" width="83.30224609375" height="239"><path d="M60.30224609375,22L70.30224609375,22Q80.30224609375,22,80.30224609375,32L80.30224609375,203Q80.30224609375,213,70.30224609375,213L4,213L70.30224609375,213Q80.30224609375,213,80.30224609375,203L80.30224609375,32Q80.30224609375,22,70.30224609375,22L60.30224609375,22L60.30224609375,22ZM70.30224609375,18L70.30224609375,26M4,209L14,213L4,217" fill="none" stroke="#D3D3D3" stroke-width="1"></path><text x="63.30224609375" y="19" style="font-family: &quot;Open Sans&quot;, sans-serif; font-size: 14px; font-weight: normal; fill: transparent;">1</text><text x="7" y="210" style="font-family: &quot;Open Sans&quot;, sans-serif; font-size: 14px; font-weight: normal; fill: transparent;">*</text></svg><svg x="217.640625" y="251.5" width="87.30224609375" height="160"><path d="M4,22L29.151123046875,22Q39.151123046875,22,39.151123046875,32L39.151123046875,124Q39.151123046875,134,49.151123046875,134L74.30224609375,134L49.151123046875,134Q39.151123046875,134,39.151123046875,124L39.151123046875,32Q39.151123046875,22,29.151123046875,22L4,22L4,22M4,18L14,22L4,26M64.30224609375,130L64.30224609375,138" fill="none" stroke="#D3D3D3" stroke-width="1"></path><text x="7" y="19" style="font-family: &quot;Open Sans&quot;, sans-serif; font-size: 14px; font-weight: normal; fill: transparent;">*</text><text x="63.29736328125" y="131" style="font-family: &quot;Open Sans&quot;, sans-serif; font-size: 14px; font-weight: normal; fill: transparent;">1</text></svg><svg x="0" y="0"><rect x="0" y="0" width="277.94287109375" height="33" fill="#316896"></rect><text x="10" y="19.75" style="font-family: &quot;Open Sans&quot;, sans-serif; font-size: 13px; font-weight: bold; fill: rgb(255, 255, 255);">rooms</text></svg><svg x="0" y="33"><rect x="0" y="0" width="277.94287109375" height="33" fill="#F2F2F2"></rect><text x="10" y="19.75" style="font-family: &quot;Open Sans&quot;, sans-serif; font-size: 13px; fill: rgb(111, 111, 111);">room_id</text><text x="225.08349609375" y="19.75" style="font-family: &quot;Open Sans&quot;, sans-serif; font-size: 13px; fill: rgb(111, 111, 111);">integer</text></svg><svg x="0" y="66"><rect x="0" y="0" width="277.94287109375" height="33" fill="#F2F2F2"></rect><text x="10" y="19.75" style="font-family: &quot;Open Sans&quot;, sans-serif; font-size: 13px; fill: rgb(111, 111, 111);">capacity</text><text x="225.08349609375" y="19.75" style="font-family: &quot;Open Sans&quot;, sans-serif; font-size: 13px; fill: rgb(111, 111, 111);">integer</text></svg><svg x="0" y="99"><rect x="0" y="0" width="277.94287109375" height="33" fill="#F2F2F2"></rect><text x="10" y="19.75" style="font-family: &quot;Open Sans&quot;, sans-serif; font-size: 13px; fill: rgb(111, 111, 111);">name</text><text x="133.30908203125" y="19.75" style="font-family: &quot;Open Sans&quot;, sans-serif; font-size: 13px; fill: rgb(111, 111, 111);">character varying(255)</text></svg><svg x="0" y="132"><rect x="0" y="0" width="277.94287109375" height="33" fill="#F2F2F2"></rect><text x="10" y="19.75" style="font-family: &quot;Open Sans&quot;, sans-serif; font-size: 13px; fill: rgb(111, 111, 111);">password</text><text x="133.30908203125" y="19.75" style="font-family: &quot;Open Sans&quot;, sans-serif; font-size: 13px; fill: rgb(111, 111, 111);">character varying(255)</text></svg><svg x="291.94287109375" y="336"><rect x="0" y="0" width="281.06591796875" height="33" fill="#316896"></rect><text x="10" y="19.75" style="font-family: &quot;Open Sans&quot;, sans-serif; font-size: 13px; font-weight: bold; fill: rgb(255, 255, 255);">users</text></svg><svg x="291.94287109375" y="369"><rect x="0" y="0" width="281.06591796875" height="33" fill="#F2F2F2"></rect><text x="10" y="19.75" style="font-family: &quot;Open Sans&quot;, sans-serif; font-size: 13px; fill: rgb(111, 111, 111);">user_id</text><text x="228.20654296875" y="19.75" style="font-family: &quot;Open Sans&quot;, sans-serif; font-size: 13px; fill: rgb(111, 111, 111);">integer</text></svg><svg x="291.94287109375" y="402"><rect x="0" y="0" width="281.06591796875" height="33" fill="#F2F2F2"></rect><text x="10" y="19.75" style="font-family: &quot;Open Sans&quot;, sans-serif; font-size: 13px; fill: rgb(111, 111, 111);">password</text><text x="136.43212890625" y="19.75" style="font-family: &quot;Open Sans&quot;, sans-serif; font-size: 13px; fill: rgb(111, 111, 111);">character varying(255)</text></svg><svg x="291.94287109375" y="435"><rect x="0" y="0" width="281.06591796875" height="33" fill="#F2F2F2"></rect><text x="10" y="19.75" style="font-family: &quot;Open Sans&quot;, sans-serif; font-size: 13px; fill: rgb(111, 111, 111);">username</text><text x="136.43212890625" y="19.75" style="font-family: &quot;Open Sans&quot;, sans-serif; font-size: 13px; fill: rgb(111, 111, 111);">character varying(255)</text></svg><svg x="570.0087890625" y="146"><rect x="0" y="0" width="266.421875" height="33" fill="#316896"></rect><text x="10" y="19.75" style="font-family: &quot;Open Sans&quot;, sans-serif; font-size: 13px; font-weight: bold; fill: rgb(255, 255, 255);">messages</text></svg><svg x="570.0087890625" y="179"><rect x="0" y="0" width="266.421875" height="33" fill="#F2F2F2"></rect><text x="10" y="19.75" style="font-family: &quot;Open Sans&quot;, sans-serif; font-size: 13px; fill: rgb(111, 111, 111);">message_id</text><text x="213.5625" y="19.75" style="font-family: &quot;Open Sans&quot;, sans-serif; font-size: 13px; fill: rgb(111, 111, 111);">integer</text></svg><svg x="570.0087890625" y="212"><rect x="0" y="0" width="266.421875" height="33" fill="#F2F2F2"></rect><text x="10" y="19.75" style="font-family: &quot;Open Sans&quot;, sans-serif; font-size: 13px; fill: rgb(111, 111, 111);">content</text><text x="121.7880859375" y="19.75" style="font-family: &quot;Open Sans&quot;, sans-serif; font-size: 13px; fill: rgb(111, 111, 111);">character varying(255)</text></svg><svg x="570.0087890625" y="245"><rect x="0" y="0" width="266.421875" height="33" fill="#F2F2F2"></rect><text x="10" y="19.75" style="font-family: &quot;Open Sans&quot;, sans-serif; font-size: 13px; fill: rgb(111, 111, 111);">sender</text><text x="121.7880859375" y="19.75" style="font-family: &quot;Open Sans&quot;, sans-serif; font-size: 13px; fill: rgb(111, 111, 111);">character varying(255)</text></svg><svg x="570.0087890625" y="278"><rect x="0" y="0" width="266.421875" height="33" fill="#F2F2F2"></rect><text x="10" y="19.75" style="font-family: &quot;Open Sans&quot;, sans-serif; font-size: 13px; fill: rgb(111, 111, 111);">sent_date</text><text x="176.02880859375" y="19.75" style="font-family: &quot;Open Sans&quot;, sans-serif; font-size: 13px; fill: rgb(111, 111, 111);">timestamp(6)</text></svg><svg x="575.4306640625" y="0"><rect x="0" y="0" width="258.6015625" height="33" fill="#316896"></rect><text x="10" y="19.75" style="font-family: &quot;Open Sans&quot;, sans-serif; font-size: 13px; font-weight: bold; fill: rgb(255, 255, 255);">rooms_messages</text></svg><svg x="575.4306640625" y="33"><rect x="0" y="0" width="258.6015625" height="33" fill="#F2F2F2"></rect><text x="10" y="19.75" style="font-family: &quot;Open Sans&quot;, sans-serif; font-size: 13px; fill: rgb(111, 111, 111);">room_room_id</text><text x="205.7421875" y="19.75" style="font-family: &quot;Open Sans&quot;, sans-serif; font-size: 13px; fill: rgb(111, 111, 111);">integer</text></svg><svg x="575.4306640625" y="66"><rect x="0" y="0" width="258.6015625" height="33" fill="#F2F2F2"></rect><text x="10" y="19.75" style="font-family: &quot;Open Sans&quot;, sans-serif; font-size: 13px; fill: rgb(111, 111, 111);">messages_message_id</text><text x="205.7421875" y="19.75" style="font-family: &quot;Open Sans&quot;, sans-serif; font-size: 13px; fill: rgb(111, 111, 111);">integer</text></svg><svg x="6" y="191"><rect x="0" y="0" width="215.640625" height="33" fill="#316896"></rect><text x="10" y="19.75" style="font-family: &quot;Open Sans&quot;, sans-serif; font-size: 13px; font-weight: bold; fill: rgb(255, 255, 255);">rooms_users</text></svg><svg x="6" y="224"><rect x="0" y="0" width="215.640625" height="33" fill="#F2F2F2"></rect><text x="10" y="19.75" style="font-family: &quot;Open Sans&quot;, sans-serif; font-size: 13px; fill: rgb(111, 111, 111);">rooms_room_id</text><text x="162.78125" y="19.75" style="font-family: &quot;Open Sans&quot;, sans-serif; font-size: 13px; fill: rgb(111, 111, 111);">integer</text></svg><svg x="6" y="257"><rect x="0" y="0" width="215.640625" height="33" fill="#F2F2F2"></rect><text x="10" y="19.75" style="font-family: &quot;Open Sans&quot;, sans-serif; font-size: 13px; fill: rgb(111, 111, 111);">users_user_id</text><text x="162.78125" y="19.75" style="font-family: &quot;Open Sans&quot;, sans-serif; font-size: 13px; fill: rgb(111, 111, 111);">integer</text></svg></svg>